<svg xmlns="http://www.w3.org/2000/svg" viewBox="0 0 632.71 293.87"><defs><style>.cls-1{fill:#fff;}</style></defs><title>Signature</title><g id="Layer_2" data-name="Layer 2"><g id="Layer_1-2" data-name="Layer 1"><path class="cls-1" d="M89.39,172.49H84.3a2.71,2.71,0,1,1,0-5.42h5.09a2.71,2.71,0,0,1,0,5.42Z"/><path class="cls-1" d="M84.3,172.09h-.09c-1.57-.06-2.13-.05-3,0-.55,0-1.19,0-2.23,0a2.31,2.31,0,0,1,0-4.62c1,0,1.59,0,2.11,0,.88,0,1.57,0,3.28,0a2.31,2.31,0,0,1-.09,4.62Z"/><path class="cls-1" d="M73,172.37a2.14,2.14,0,0,1-.23-4.27c1.53-.17,2.33-.2,3.09-.22s1.44,0,2.9-.23a2.14,2.14,0,0,1,.5,4.26c-1.63.19-2.45.22-3.25.25s-1.4.05-2.78.2Z"/><path class="cls-1" d="M67.54,172.2c-.81,0-1.79,0-3.26-.06a1.92,1.92,0,0,1-1.85-2,1.89,1.89,0,0,1,2-1.85c2.63.08,3.62.06,5,0,.88,0,1.91,0,3.58,0a1.91,1.91,0,1,1,0,3.82c-1.64,0-2.64,0-3.51,0C68.82,172.19,68.24,172.2,67.54,172.2Z"/><path class="cls-1" d="M59.74,172.38a25.1,25.1,0,0,1-2.83-.18,42.49,42.49,0,0,0-4.8-.26,1.71,1.71,0,1,1,0-3.42,44,44,0,0,1,5.15.28,21.33,21.33,0,0,0,6.81-.26,1.71,1.71,0,0,1,.54,3.38A30.52,30.52,0,0,1,59.74,172.38Z"/><path class="cls-1" d="M52.11,171.68l-.28,0-3-.58c-6.17-1.18-7.12-1.37-14.8-4.48a1.45,1.45,0,0,1,1.09-2.68c7.41,3,8.19,3.15,14.25,4.32l3,.58a1.45,1.45,0,0,1-.28,2.87Z"/><path class="cls-1" d="M34.62,166.88a1.71,1.71,0,0,1-.59-.11l-.36-.14c-4.85-1.87-5-2-9.3-5.19l-.11-.09a1.63,1.63,0,1,1,2-2.6l.11.08c4,3,4,3,8.51,4.76l.37.14a1.63,1.63,0,0,1-.59,3.15Z"/><path class="cls-1" d="M25.23,161.59a1.57,1.57,0,0,1-.8-.23c-5-3.11-5.83-4.12-8-6.81-.64-.81-1.44-1.81-2.54-3.1a1.54,1.54,0,1,1,2.33-2c1.14,1.33,2,2.36,2.62,3.19,2,2.52,2.61,3.28,7.18,6.1a1.54,1.54,0,0,1-.81,2.85Z"/><path class="cls-1" d="M15.08,151.84a1.4,1.4,0,0,1-1.13-.57c-5.22-7.2-5.43-8-7.11-14.13-.27-1-.58-2.13-1-3.47a1.39,1.39,0,1,1,2.67-.76c.38,1.35.7,2.5,1,3.5,1.62,6,1.75,6.44,6.68,13.23a1.39,1.39,0,0,1-1.12,2.2Z"/><path class="cls-1" d="M7.22,134.6a1.32,1.32,0,0,1-1.27-1c-2.29-8.58-2.22-9.54-.88-15.69.25-1.15.54-2.5.86-4.16a1.31,1.31,0,0,1,2.57.51c-.33,1.67-.63,3-.88,4.2-1.24,5.74-1.34,6.21.86,14.47a1.3,1.3,0,0,1-.93,1.6A1.26,1.26,0,0,1,7.22,134.6Z"/><path class="cls-1" d="M7.22,115a1.35,1.35,0,0,1-.28,0,1,1,0,0,1-.64-1.2C11.36,96.84,11.53,96.6,20.18,83.9l2-2.88a1,1,0,0,1,1.34-.26,1,1,0,0,1,.25,1.34l-2,2.88c-8.65,12.7-8.65,12.7-13.63,29.32A1,1,0,0,1,7.22,115Z"/><path class="cls-1" d="M22.94,82.4a.85.85,0,0,1-.54-.19A.84.84,0,0,1,22.28,81c3-3.66,5.3-6.59,7.16-9,6.86-8.73,8.94-11.37,22.47-22.21A.84.84,0,0,1,53,51.19C39.58,61.91,37.53,64.51,30.76,73.12c-1.86,2.36-4.18,5.3-7.17,9A.83.83,0,0,1,22.94,82.4Z"/><path class="cls-1" d="M52.44,51.45a.92.92,0,0,1-.58-1.64c3.43-2.74,5.93-4.84,7.94-6.52,5.76-4.83,8.14-6.82,18.77-13.17a.92.92,0,1,1,.94,1.58C69,38,66.66,39.94,61,44.69c-2,1.69-4.53,3.8-8,6.56A.94.94,0,0,1,52.44,51.45Z"/><path class="cls-1" d="M79,31.82a.9.9,0,0,1-.75-.39.92.92,0,0,1,.23-1.27c13-9,14.72-10,25.52-16.13l4.83-2.75a.91.91,0,1,1,.91,1.58l-4.84,2.75c-11,6.25-12.39,7.06-25.38,16.05A.91.91,0,0,1,79,31.82Z"/><path class="cls-1" d="M109.33,13.25a1.2,1.2,0,0,1-1-.6,1.18,1.18,0,0,1,.45-1.61c7.47-4.21,7.76-4.3,15.07-6.6l1.2-.38a1.17,1.17,0,1,1,.7,2.24l-1.19.38C117.3,9,117.16,9,109.9,13.09A1.1,1.1,0,0,1,109.33,13.25Z"/><path class="cls-1" d="M125.37,6.57a1.39,1.39,0,0,1-.3-2.74c1.86-.42,3.23-.76,4.36-1.05A39,39,0,0,1,139.9,1.39a1.39,1.39,0,1,1,.1,2.78,36,36,0,0,0-9.9,1.31c-1.15.29-2.53.63-4.43,1.06Z"/><path class="cls-1" d="M140,4.48a1.7,1.7,0,0,1-.65-3.27C143-.34,144.15-.19,145.82.5a6.8,6.8,0,0,0,2.25.59,1.7,1.7,0,1,1-.35,3.38,10.2,10.2,0,0,1-3.22-.83c-.74-.32-1.09-.46-3.9.71A1.64,1.64,0,0,1,140,4.48Z"/><path class="cls-1" d="M154.1,16.24A1.61,1.61,0,0,1,152.53,15l-.11-.5c-1.27-5.84-1.27-5.84-3.66-8.38-.56-.59-1.23-1.31-2.06-2.24a1.61,1.61,0,0,1,2.4-2.15c.8.9,1.46,1.61,2,2.19,3,3.19,3.08,3.57,4.46,9.9l.1.5a1.61,1.61,0,0,1-1.23,1.91A1.32,1.32,0,0,1,154.1,16.24Z"/><path class="cls-1" d="M154.74,37.51h-.18A1.33,1.33,0,0,1,153.42,36c1.31-10,1.25-10.31-.15-18.38l-.48-2.78a1.33,1.33,0,0,1,2.62-.45l.48,2.77c1.41,8.12,1.53,8.79.17,19.18A1.34,1.34,0,0,1,154.74,37.51Z"/><path class="cls-1" d="M146.76,79.52a.78.78,0,0,1-.22,0,.88.88,0,0,1-.63-1.07c1-4,1.92-7.17,2.66-9.9,3.24-11.84,4-14.65,5.3-32.41a.85.85,0,0,1,.93-.8.87.87,0,0,1,.81.93C154.3,54.16,153.45,57.3,150.26,69c-.75,2.72-1.62,5.92-2.66,9.88A.87.87,0,0,1,146.76,79.52Z"/><path class="cls-1" d="M128.29,121.88a.75.75,0,0,1-.38-.1.8.8,0,0,1-.3-1.08c7.4-13,9.17-18,11.84-25.42,1.48-4.11,3.32-9.23,6.58-16.94a.79.79,0,0,1,1.45.61c-3.24,7.67-5,12.55-6.54,16.86-2.71,7.54-4.5,12.51-12,25.67A.79.79,0,0,1,128.29,121.88Z"/><path class="cls-1" d="M107.36,167.47a.82.82,0,0,1-.3-.07.72.72,0,0,1-.34-1c5-10.54,7.44-16.17,9.85-21.61,2.71-6.12,5.26-11.9,11.09-24a.71.71,0,0,1,.94-.34.72.72,0,0,1,.33,1c-5.81,12.13-8.36,17.9-11.06,24-2.41,5.45-4.9,11.08-9.87,21.65A.72.72,0,0,1,107.36,167.47Z"/><path class="cls-1" d="M95.5,196.85a.85.85,0,0,1-.31-.06.88.88,0,0,1-.52-1.13l2.17-5.8c3.46-9.29,4.18-11.23,9.72-23.47a.89.89,0,0,1,1.17-.44.88.88,0,0,1,.43,1.17c-5.51,12.19-6.23,14.11-9.67,23.36l-2.17,5.8A.87.87,0,0,1,95.5,196.85Z"/><path class="cls-1" d="M83.46,233.82a.67.67,0,0,1-.24,0,.89.89,0,0,1-.61-1.1c4.84-16.65,5.44-18.34,10.12-31.55l1.93-5.46a.89.89,0,0,1,1.68.59l-1.94,5.47c-4.66,13.16-5.26,14.85-10.08,31.45A.9.9,0,0,1,83.46,233.82Z"/><path class="cls-1" d="M76,262.27a.78.78,0,0,1-.22,0,1,1,0,0,1-.72-1.15c2-8.7,3-12.17,4.23-16.56.84-2.93,1.79-6.26,3.25-11.84a1,1,0,1,1,1.85.48c-1.46,5.61-2.41,8.94-3.25,11.89-1.3,4.53-2.23,7.81-4.21,16.46A1,1,0,0,1,76,262.27Z"/><path class="cls-1" d="M71.79,278.18a1.24,1.24,0,0,1-.33,0,1.26,1.26,0,0,1-.88-1.54c.79-2.9,1.36-4.75,1.82-6.23a86.07,86.07,0,0,0,2.37-9.32,1.25,1.25,0,1,1,2.45.51,86,86,0,0,1-2.43,9.54c-.47,1.55-1,3.3-1.79,6.16A1.25,1.25,0,0,1,71.79,278.18Z"/><path class="cls-1" d="M66,293a1.33,1.33,0,0,1-.58-.13,1.36,1.36,0,0,1-.66-1.81,9.91,9.91,0,0,1,4-4.71c1.32-.87,2.2-1.44,1.72-9.29a1.36,1.36,0,1,1,2.72-.16c.52,8.57-.44,10.09-2.94,11.72a7.31,7.31,0,0,0-3,3.6A1.36,1.36,0,0,1,66,293Z"/><path class="cls-1" d="M45.13,293.87c-7.72,0-12.3-1.33-30.83-7.51a1.61,1.61,0,0,1,1-3.05C38.51,291.05,39,291,52.65,290.43c3.41-.15,7.66-.34,13.27-.44a1.57,1.57,0,0,1,1.63,1.57A1.6,1.6,0,0,1,66,293.19c-5.57.11-9.79.29-13.19.44C49.73,293.77,47.31,293.87,45.13,293.87Z"/><path class="cls-1" d="M14.81,286.41a1.55,1.55,0,0,1-1.21-.57A14,14,0,0,0,10,282.68c-2.38-1.57-3.66-2.7-4.73-9.49a1.58,1.58,0,0,1,3.12-.49c.9,5.73,1.66,6.24,3.34,7.34A17.38,17.38,0,0,1,16,283.83a1.58,1.58,0,0,1-.21,2.22A1.6,1.6,0,0,1,14.81,286.41Z"/><path class="cls-1" d="M6.85,274.54a1.6,1.6,0,0,1-1.36-.76c-2.73-4.44-3-5.34-3.81-8.88-.18-.78-.39-1.69-.67-2.84a1.6,1.6,0,0,1,3.1-.77c.29,1.17.5,2.1.68,2.89.74,3.21.87,3.78,3.42,7.93a1.59,1.59,0,0,1-1.36,2.43Z"/><path class="cls-1" d="M2.56,263.21A1.53,1.53,0,0,1,1.06,262c-1.35-6.75-1.31-7.42-.45-12.64.13-.78.27-1.67.44-2.71a1.53,1.53,0,1,1,3,.47c-.16,1.05-.31,2-.44,2.74-.78,4.76-.85,5.15.43,11.54a1.53,1.53,0,0,1-1.2,1.8Z"/><path class="cls-1" d="M2.56,248.31a1.53,1.53,0,0,1-.3,0,1.45,1.45,0,0,1-1.12-1.71c1.65-7.72,1.75-8,5.57-13.54l1-1.53a1.44,1.44,0,0,1,2.38,1.62l-1.05,1.54c-3.56,5.2-3.56,5.2-5.12,12.51A1.43,1.43,0,0,1,2.56,248.31Z"/><path class="cls-1" d="M9,233.47a1.18,1.18,0,0,1-.67-.21A1.17,1.17,0,0,1,8,231.64c7.14-10.07,7.79-10.59,15.68-16.88l2.62-2.09a1.16,1.16,0,0,1,1.45,1.81l-2.62,2.09C17.31,222.8,16.85,223.18,9.9,233A1.17,1.17,0,0,1,9,233.47Z"/><path class="cls-1" d="M27,214.38a.81.81,0,0,1-.63-.31.79.79,0,0,1,.13-1.12c18.28-14.62,21-16.06,35.86-24,2.63-1.4,5.64-3,9.18-4.93a.8.8,0,1,1,.76,1.41c-3.54,1.92-6.56,3.53-9.18,4.94-14.79,7.9-17.46,9.32-35.62,23.85A.81.81,0,0,1,27,214.38Z"/><path class="cls-1" d="M72,185.78a1.07,1.07,0,0,1-.24-2.12,56,56,0,0,0,6.81-2c3.45-1.24,5.53-2,12.92-1.25a1.08,1.08,0,1,1-.21,2.15c-6.91-.69-8.71-.05-12,1.12a57.89,57.89,0,0,1-7.06,2.11Z"/><path class="cls-1" d="M91.33,182.74a1.29,1.29,0,0,1-.18-2.56c7.27-1,8.48-1,13.58-.79,1,0,2.27.09,3.75.13a1.29,1.29,0,1,1-.08,2.57c-1.49,0-2.71-.09-3.77-.13-5-.19-6.08-.23-13.11.77Z"/><path class="cls-1" d="M118.89,184.9a1.57,1.57,0,0,1-.6-.12l-.77-.33c-4.07-1.72-4.07-1.72-9-2.07h-.15a1.56,1.56,0,1,1,.22-3.12h.16c5.38.38,5.57.43,10,2.31l.76.32a1.57,1.57,0,0,1-.61,3Z"/><path class="cls-1" d="M123.63,189.41a1.87,1.87,0,0,1-1.56-.84,5.39,5.39,0,0,0-2.18-2.3,18.47,18.47,0,0,1-2.16-1.49,1.86,1.86,0,1,1,2.33-2.89,13.91,13.91,0,0,0,1.74,1.21,8.85,8.85,0,0,1,3.39,3.45,1.87,1.87,0,0,1-.55,2.57A1.85,1.85,0,0,1,123.63,189.41Z"/><path class="cls-1" d="M127.92,194.2a2,2,0,0,1-1.52-.71,41,41,0,0,0-3.35-3.72l-.82-.83a2,2,0,0,1,2.8-2.76l.82.83a43.78,43.78,0,0,1,3.58,4,2,2,0,0,1-.26,2.76A1.92,1.92,0,0,1,127.92,194.2Z"/><path class="cls-1" d="M131.9,199.5a2.19,2.19,0,0,1-1.79-.91l-.3-.37c-1.5-.45-2.25-1.61-3.9-5a2.23,2.23,0,0,1,4-1.94,25.41,25.41,0,0,0,1.49,2.78,4.65,4.65,0,0,1,2.29,1.9,2.23,2.23,0,0,1-1.8,3.55ZM130,198.28h0Z"/><path class="cls-1" d="M131.9,199.79a2.55,2.55,0,0,1-.54-.06,2.51,2.51,0,0,1-1.92-3,14.86,14.86,0,0,1,1.14-3.52c.28-.58.46-1,.4-5.82a2.52,2.52,0,0,1,2.48-2.56,2.55,2.55,0,0,1,2.55,2.49c.07,5.55-.15,6.51-.86,8a9.45,9.45,0,0,0-.79,2.46A2.51,2.51,0,0,1,131.9,199.79Z"/><path class="cls-1" d="M133.49,188.92a1.56,1.56,0,0,1-1.56-1.56,63,63,0,0,1,.57-9.5,78.73,78.73,0,0,0,.66-7.89,1.57,1.57,0,0,1,3.13.12,80,80,0,0,1-.68,8.16,60.78,60.78,0,0,0-.55,9.1,1.56,1.56,0,0,1-1.56,1.57Z"/><path class="cls-1" d="M134.73,171.49a1,1,0,0,1-.3,0,1.44,1.44,0,0,1-1.12-1.72c.55-2.61.86-4.38,1.11-5.81a65.65,65.65,0,0,1,2.46-9.92,1.45,1.45,0,0,1,2.77.87,62.41,62.41,0,0,0-2.37,9.56c-.25,1.45-.57,3.24-1.14,5.9A1.44,1.44,0,0,1,134.73,171.49Z"/><path class="cls-1" d="M138.27,155.86a1.43,1.43,0,0,1-1.4-1.71,105.57,105.57,0,0,1,2.59-10.66c.42-1.44.93-3.17,1.62-5.71a1.43,1.43,0,1,1,2.75.75c-.7,2.56-1.21,4.31-1.63,5.76a97.43,97.43,0,0,0-2.54,10.43A1.43,1.43,0,0,1,138.27,155.86Z"/><path class="cls-1" d="M142.46,139.67a1.53,1.53,0,0,1-.3,0,1.5,1.5,0,0,1-1.19-1.77c1-5.05,1.65-6.26,2.95-8.68.5-.92,1.12-2.07,1.9-3.73a1.51,1.51,0,0,1,2.74,1.29c-.82,1.73-1.46,2.92-2,3.87-1.23,2.29-1.74,3.24-2.64,7.83A1.51,1.51,0,0,1,142.46,139.67Z"/><path class="cls-1" d="M147.19,128.06a1.93,1.93,0,0,1-1.16-.39,2,2,0,0,1-.41-2.73l1.67-2.27c2.27-3.09,2.68-3.64,4.27-3.55.09,0,.4,0,1.48-.49a2,2,0,0,1,1.7,3.52,7.44,7.44,0,0,1-2.84.88c-.31.4-.82,1.09-1.46,2l-1.68,2.29A2,2,0,0,1,147.19,128.06Z"/><path class="cls-1" d="M153,141l-.36,0a1.84,1.84,0,0,1-1.44-2.17c.58-2.91,1-5,1.38-6.58.94-4.32.94-4.32.34-7.2-.21-1-.5-2.38-.84-4.3a1.84,1.84,0,1,1,3.62-.64c.33,1.86.61,3.18.82,4.18.76,3.66.7,3.95-.35,8.74-.34,1.56-.79,3.64-1.37,6.53A1.83,1.83,0,0,1,153,141Z"/><path class="cls-1" d="M141.86,161.32a1.29,1.29,0,0,1-1-2.08c5.07-6.4,5.93-8.59,7.49-12.57.78-2,1.76-4.46,3.51-8.07a1.28,1.28,0,1,1,2.3,1.11c-1.7,3.52-2.66,5.95-3.42,7.9-1.6,4.07-2.56,6.52-7.87,13.22A1.26,1.26,0,0,1,141.86,161.32Z"/><path class="cls-1" d="M135.64,170.38a1.5,1.5,0,0,1-1-.36,1.54,1.54,0,0,1-.19-2.16,32.42,32.42,0,0,0,3.36-4.61c.64-1,1.36-2.19,2.81-4.13a1.54,1.54,0,1,1,2.46,1.84c-1.37,1.83-2,2.89-2.66,3.91a36.09,36.09,0,0,1-3.61,5A1.54,1.54,0,0,1,135.64,170.38Z"/><path class="cls-1" d="M129.16,180.67a1.49,1.49,0,0,1-.81-.23,1.57,1.57,0,0,1-.55-2.16c1.75-2.91,2.57-4.16,3.52-5.6.73-1.12,1.56-2.38,3-4.67a1.58,1.58,0,1,1,2.68,1.67c-1.44,2.32-2.28,3.6-3,4.73-.93,1.42-1.74,2.64-3.45,5.49A1.56,1.56,0,0,1,129.16,180.67Z"/><path class="cls-1" d="M125.78,186a1.86,1.86,0,0,1-1.09-.35,1.9,1.9,0,0,1-.46-2.64l.42-.62c.12-.63.49-1.22,3-4.47a1.9,1.9,0,0,1,3,2.33c-1.61,2.06-2.15,2.83-2.33,3.11a5.38,5.38,0,0,1-1,1.83A1.89,1.89,0,0,1,125.78,186Z"/><path class="cls-1" d="M125.78,186.25a2.11,2.11,0,0,1-1.47-.59,2.15,2.15,0,0,1-.09-3,17.82,17.82,0,0,1,3.31-3,36.92,36.92,0,0,0,5.23-4.73,2.15,2.15,0,1,1,3,3c-3.85,3.85-4.94,4.61-5.81,5.21a14.26,14.26,0,0,0-2.64,2.44A2.17,2.17,0,0,1,125.78,186.25Z"/><path class="cls-1" d="M134.28,177.51a1.1,1.1,0,0,1-.88-.44,1.12,1.12,0,0,1,.21-1.56l1.51-1.16c12.38-9.5,12.86-9.87,26.73-19.44a1.11,1.11,0,1,1,1.26,1.83c-13.82,9.54-14.3,9.91-26.63,19.37L135,177.28A1.14,1.14,0,0,1,134.28,177.51Z"/><path class="cls-1" d="M162.48,157.46a1.64,1.64,0,0,1-.82-3.05c.67-.38,1.15-.68,1.54-.93a15.61,15.61,0,0,1,4.12-1.89,1.64,1.64,0,0,1,1.05,3.1,12.56,12.56,0,0,0-3.45,1.57c-.42.26-.92.57-1.62,1A1.63,1.63,0,0,1,162.48,157.46Z"/><path class="cls-1" d="M167.85,154.78a1.64,1.64,0,0,1-.7-3.12,67.07,67.07,0,0,1,8.47-3.49c1-.34,2.14-.74,3.7-1.31a1.64,1.64,0,1,1,1.11,3.08c-1.58.57-2.76,1-3.73,1.32a63.51,63.51,0,0,0-8.16,3.36A1.55,1.55,0,0,1,167.85,154.78Z"/><path class="cls-1" d="M179.88,150.07a1.67,1.67,0,0,1-.54-3.25,42.32,42.32,0,0,1,9.82-2.47l1.43-.23a1.67,1.67,0,1,1,.54,3.3l-1.44.24a39.83,39.83,0,0,0-9.28,2.33A1.67,1.67,0,0,1,179.88,150.07Z"/><path class="cls-1" d="M190.86,147.62a1.85,1.85,0,0,1-.71-3.56c3.69-1.52,4.85-1.64,6.53-.67a3.72,3.72,0,0,0,1.65.55,1.85,1.85,0,1,1-.51,3.66,7.28,7.28,0,0,1-3-1c-.09,0-.16-.1-.25-.14a12.5,12.5,0,0,0-3,1A1.75,1.75,0,0,1,190.86,147.62Z"/><path class="cls-1" d="M200,160.73h-.23a2,2,0,0,1-1.72-2.18c.66-5.58.43-6.12-.33-7.92a31.29,31.29,0,0,1-1.51-4.33,2,2,0,1,1,3.78-1,27.9,27.9,0,0,0,1.34,3.84c1,2.46,1.36,3.63.61,9.91A2,2,0,0,1,200,160.73Z"/><path class="cls-1" d="M198.45,170.71a1.68,1.68,0,0,1-.54-.08,1.78,1.78,0,0,1-1.16-2.23,18.72,18.72,0,0,0,1.16-6c.05-.93.11-2.09.3-3.79a1.77,1.77,0,0,1,2-1.57,1.79,1.79,0,0,1,1.58,2c-.18,1.59-.23,2.65-.28,3.58a21.7,21.7,0,0,1-1.33,6.93A1.77,1.77,0,0,1,198.45,170.71Z"/><path class="cls-1" d="M196.44,179a1.61,1.61,0,0,1-.52-.08,1.84,1.84,0,0,1-1.25-2.29,48.72,48.72,0,0,0,1.29-5.06c.17-.77.37-1.7.69-3.09a1.85,1.85,0,1,1,3.6.83c-.32,1.36-.51,2.27-.67,3-.34,1.58-.54,2.53-1.37,5.34A1.84,1.84,0,0,1,196.44,179Z"/><path class="cls-1" d="M194.72,185.64a1.93,1.93,0,0,1-.53-.07,2,2,0,0,1-1.36-2.42c0-.18.08-.32.1-.41-.71-1.38-.09-2.84,1.77-6.44a2,2,0,0,1,2.64-.85,2,2,0,0,1,.85,2.64c-1,1.95-1.39,2.85-1.55,3.27a4.14,4.14,0,0,1,0,2.85A2,2,0,0,1,194.72,185.64Z"/><path class="cls-1" d="M194.72,185.77a2.09,2.09,0,0,1-1-4,37.48,37.48,0,0,1,4.54-2c1.62-.62,2.23-.85,8-5.59a2.09,2.09,0,1,1,2.65,3.24c-6.07,5-7,5.42-9.21,6.27a33.23,33.23,0,0,0-4.09,1.85A2.09,2.09,0,0,1,194.72,185.77Z"/><path class="cls-1" d="M207.66,177.34a1.56,1.56,0,0,1-1.14-.5,1.53,1.53,0,0,1,.1-2.17,60.78,60.78,0,0,1,7.64-6.12,64,64,0,0,0,7-5.49,1.54,1.54,0,0,1,2.17.13,1.53,1.53,0,0,1-.13,2.17,64.37,64.37,0,0,1-7.29,5.72,58.53,58.53,0,0,0-7.31,5.85A1.56,1.56,0,0,1,207.66,177.34Z"/><path class="cls-1" d="M222.28,165.57a1.34,1.34,0,0,1-1.11-.58,1.35,1.35,0,0,1,.34-1.89c7.39-5.12,7.81-5.32,14.83-8.74l1.61-.78a1.36,1.36,0,1,1,1.19,2.45l-1.61.78c-6.85,3.32-7.26,3.52-14.47,8.52A1.4,1.4,0,0,1,222.28,165.57Z"/><path class="cls-1" d="M238.55,156.46a1.66,1.66,0,0,1-.55-3.22c1.21-.42,2.06-.75,2.75-1a19.49,19.49,0,0,1,6.43-1.5,1.65,1.65,0,1,1,.36,3.29,16.19,16.19,0,0,0-5.57,1.3c-.73.28-1.62.63-2.88,1.07A1.75,1.75,0,0,1,238.55,156.46Z"/><path class="cls-1" d="M247.36,154.22a1.86,1.86,0,0,1-.6-3.62,13.4,13.4,0,0,1,5.48-1c.58,0,1.3,0,2.31-.05a1.86,1.86,0,0,1,.21,3.71c-1.11.06-1.9.06-2.52.06a10,10,0,0,0-4.28.81A1.8,1.8,0,0,1,247.36,154.22Z"/><path class="cls-1" d="M260.87,155.69a2.13,2.13,0,0,1-1.13-.32c-2-1.24-2.2-1.26-3.75-1.52-.47-.08-1-.17-1.75-.32a2.18,2.18,0,1,1,.83-4.28l1.64.29a11.54,11.54,0,0,1,5.3,2.1,2.18,2.18,0,0,1-1.14,4.05Z"/><path class="cls-1" d="M265.37,158.93a2.1,2.1,0,0,1-1.5-.63,3.78,3.78,0,0,0-1.46-1,7,7,0,0,1-3.19-2.48,2.11,2.11,0,0,1,3.31-2.63,2.91,2.91,0,0,0,1.5,1.21,7.87,7.87,0,0,1,2.85,1.93,2.12,2.12,0,0,1,0,3A2.14,2.14,0,0,1,265.37,158.93Z"/><path class="cls-1" d="M274,160.14a19.4,19.4,0,0,1-6.82-.9c-.62-.18-1.36-.38-2.31-.63a1.85,1.85,0,0,1,.93-3.59c1,.25,1.74.47,2.38.65a17.3,17.3,0,0,0,6.55.76h0a1.86,1.86,0,0,1,0,3.71Z"/><path class="cls-1" d="M283.55,160.13c-2.11,0-4.17-.1-8.08-.31l-.77,0a1.49,1.49,0,0,1-1.42-1.57,1.52,1.52,0,0,1,1.58-1.43l.76,0a104.56,104.56,0,0,0,16.5,0,1.5,1.5,0,0,1,.16,3C287.94,160,285.72,160.13,283.55,160.13Z"/><path class="cls-1" d="M292.2,159.75a1.47,1.47,0,0,1-.14-2.93c2.43-.24,4.07-.36,5.43-.47a76.09,76.09,0,0,0,9.26-1.18,1.47,1.47,0,1,1,.51,2.89,78.6,78.6,0,0,1-9.55,1.22c-1.34.11-3,.23-5.36.47Z"/><path class="cls-1" d="M307,158.24a1.62,1.62,0,0,1-.22-3.23l3.65-.5c2.37-.31,3.45-.46,7.36-1.1a1.62,1.62,0,1,1,.53,3.2c-4,.65-5.14.81-7.46,1.12l-3.63.49Z"/><path class="cls-1" d="M318.06,156.76a1.75,1.75,0,0,1-.34-3.47c2.72-.53,3.9-.69,5.28-.88,1-.13,2.11-.29,4.06-.61a1.75,1.75,0,0,1,.58,3.45c-2,.33-3.15.49-4.17.63-1.37.19-2.46.34-5.08.85A1.84,1.84,0,0,1,318.06,156.76Z"/><path class="cls-1" d="M327.34,155.47a2,2,0,0,1-.2-3.89l1.31-.14a38.83,38.83,0,0,1,4.81-.29h0a1.95,1.95,0,0,1,0,3.89,36,36,0,0,0-4.45.28l-1.33.14Z"/><path class="cls-1" d="M338.74,155.15h-.08a48.22,48.22,0,0,0-5.24,0l-.13-2,0-2.06a49,49,0,0,1,5.55,0,2.05,2.05,0,0,1-.08,4.1Zm-5.45-2.05h0Z"/><path class="cls-1" d="M344.69,155.61h-.22c-1.12-.12-1.83-.26-2.4-.37a7.56,7.56,0,0,0-3.07-.06,2.09,2.09,0,1,1-.51-4.15,11.54,11.54,0,0,1,4.38.1c.52.1,1.11.22,2,.32a2.09,2.09,0,0,1-.21,4.17Z"/><path class="cls-1" d="M354,159.25a1.8,1.8,0,0,1-.89-.24,20.87,20.87,0,0,0-4.67-2.06,29.85,29.85,0,0,1-4.53-1.79,1.82,1.82,0,1,1,1.57-3.28,27.66,27.66,0,0,0,4.07,1.6,24,24,0,0,1,5.35,2.36,1.83,1.83,0,0,1,.69,2.48A1.85,1.85,0,0,1,354,159.25Z"/><path class="cls-1" d="M365.77,162.85a1.72,1.72,0,0,1-.44-.06l-2.43-.66a70,70,0,0,1-9.51-3.14,1.68,1.68,0,0,1,1.2-3.14,67.18,67.18,0,0,0,9.19,3l2.44.66a1.69,1.69,0,0,1-.45,3.31Z"/><path class="cls-1" d="M380.24,165.59l-.22,0-1.08-.16a89.7,89.7,0,0,1-13.55-2.77,1.52,1.52,0,0,1,.76-2.95,87.33,87.33,0,0,0,13.24,2.71l1.08.16a1.52,1.52,0,0,1,1.28,1.73A1.54,1.54,0,0,1,380.24,165.59Z"/><path class="cls-1" d="M387.85,166.36a35.72,35.72,0,0,1-4.56-.28c-.81-.09-1.8-.2-3.2-.32a1.7,1.7,0,0,1,.3-3.39c1.43.13,2.44.24,3.28.33a36.21,36.21,0,0,0,6.25.23,1.68,1.68,0,0,1,1.74,1.65,1.71,1.71,0,0,1-1.65,1.75Z"/><path class="cls-1" d="M393.92,166.62c-1,0-2.19-.05-4.11-.22a1.79,1.79,0,0,1-1.62-1.93,1.77,1.77,0,0,1,1.93-1.61,32.17,32.17,0,0,0,6,.13c.82,0,1.8-.1,3.21-.14a1.8,1.8,0,0,1,1.83,1.73,1.78,1.78,0,0,1-1.73,1.82c-1.36,0-2.32.09-3.12.14S394.73,166.62,393.92,166.62Z"/><path class="cls-1" d="M401.3,166.66a21.06,21.06,0,0,1-2.13-.14,1.91,1.91,0,0,1,.39-3.79c2.3.24,2.55.11,3.51-.35a19.54,19.54,0,0,1,2.37-1,1.91,1.91,0,1,1,1.25,3.61,14.87,14.87,0,0,0-1.95.82A6.85,6.85,0,0,1,401.3,166.66Z"/><path class="cls-1" d="M406.06,165.32a2.16,2.16,0,0,1-1.2-.38,2.12,2.12,0,0,1-.55-3,15.35,15.35,0,0,1,2.6-3c.8-.74,1.29-1.19,2.17-3.5a2.13,2.13,0,1,1,4,1.52,11.14,11.14,0,0,1-3.27,5.12,11.78,11.78,0,0,0-2,2.27A2.13,2.13,0,0,1,406.06,165.32Z"/><path class="cls-1" d="M411.07,158.31a2,2,0,0,1-1-.28,2.06,2.06,0,0,1-.77-2.82,13.08,13.08,0,0,1,2.63-3.5c.38-.38.81-.81,1.43-1.51a2.07,2.07,0,0,1,3.11,2.72c-.71.81-1.22,1.32-1.63,1.72a9.54,9.54,0,0,0-1.95,2.62A2.07,2.07,0,0,1,411.07,158.31Z"/><path class="cls-1" d="M414.89,153.54a2,2,0,0,1-1.22-3.54l1.19-.95a20.13,20.13,0,0,1,5.53-3.36,2,2,0,0,1,1.68,3.59,16.57,16.57,0,0,0-4.73,2.87l-1.22,1A2,2,0,0,1,414.89,153.54Z"/><path class="cls-1" d="M421.23,149.38a1.9,1.9,0,0,1-.93-3.55,25,25,0,0,1,6.59-2.91l1.71-.53a1.9,1.9,0,0,1,1.15,3.62l-1.73.54a21.44,21.44,0,0,0-5.86,2.59A1.92,1.92,0,0,1,421.23,149.38Z"/><path class="cls-1" d="M429.17,146a1.83,1.83,0,0,1-.44-3.61l1.39-.35a30,30,0,0,1,8.37-1.17,1.83,1.83,0,0,1,.17,3.66,26.41,26.41,0,0,0-7.65,1.07l-1.4.35A2.12,2.12,0,0,1,429.17,146Z"/><path class="cls-1" d="M438.57,144.12a1.4,1.4,0,0,1,0-2.79c3.21-.11,5.36-.22,7.16-.31,3.64-.18,5.85-.29,12.47-.17a1.4,1.4,0,0,1,1.37,1.42,1.37,1.37,0,0,1-1.42,1.36c-6.54-.11-8.7,0-12.28.18-1.81.09-4,.2-7.21.31Z"/><path class="cls-1" d="M458.13,143.83a1.59,1.59,0,1,1,0-3.18l4.6,0c1.84,0,3.18,0,6.68,0a1.59,1.59,0,0,1,0,3.18h0c-3.46-.05-4.78,0-6.6,0Z"/><path class="cls-1" d="M469.38,143.82a1.58,1.58,0,0,1-.07-3.16c3.95-.17,5.45-.13,7.53-.07,1.28,0,2.72.07,5.1.07a1.58,1.58,0,0,1,0,3.16c-2.42,0-3.89,0-5.19-.08-2-.05-3.47-.09-7.3.08Z"/><path class="cls-1" d="M489.12,145l-.37,0a24.64,24.64,0,0,0-4-.57c-.72-.06-1.62-.12-3-.3a1.83,1.83,0,0,1,.44-3.64c1.33.16,2.15.22,2.86.28a29.69,29.69,0,0,1,4.46.63,1.83,1.83,0,0,1-.36,3.63Z"/><path class="cls-1" d="M496.42,145.93l-.24,0c-1.43-.17-2.3-.32-3.05-.44A30.94,30.94,0,0,0,489,145a1.9,1.9,0,1,1,.22-3.79,35.33,35.33,0,0,1,4.52.49c.71.12,1.54.26,2.9.42a1.9,1.9,0,0,1-.23,3.79Z"/><path class="cls-1" d="M503,147.77a1.81,1.81,0,0,1-.65-.11l-1.57-.55a17,17,0,0,0-4.64-1.13,2,2,0,1,1,.57-3.9,20.77,20.77,0,0,1,5.41,1.31l1.53.54a2,2,0,0,1-.65,3.84Z"/><path class="cls-1" d="M507.88,150.71a2,2,0,0,1-1.26-.44,11.3,11.3,0,0,0-3.71-2.27l-.75-.33a2,2,0,0,1,1.65-3.74l.73.32a15,15,0,0,1,4.61,2.81,2,2,0,0,1-1.27,3.65Z"/><path class="cls-1" d="M513.07,155.45a2,2,0,0,1-1.51-.67,21.55,21.55,0,0,0-3-2.92c-.5-.41-1.1-.91-2-1.67a2,2,0,1,1,2.67-3.05c.82.72,1.4,1.19,1.87,1.58a25.68,25.68,0,0,1,3.48,3.34,2,2,0,0,1-1.5,3.39Z"/><path class="cls-1" d="M519.31,161.57A1.87,1.87,0,0,1,518,161c-1.38-1.43-2.15-2.15-2.89-2.85s-1.71-1.62-3.38-3.42a1.9,1.9,0,1,1,2.78-2.59c1.59,1.71,2.34,2.42,3.21,3.24s1.57,1.49,3,3a1.9,1.9,0,0,1,0,2.69A1.85,1.85,0,0,1,519.31,161.57Z"/><path class="cls-1" d="M526.73,167.88a1.82,1.82,0,0,1-1.13-.39c-1.06-.86-1.83-1.46-2.47-2a36.25,36.25,0,0,1-5.1-4.62,1.79,1.79,0,1,1,2.57-2.48,33.49,33.49,0,0,0,4.71,4.27c.66.51,1.46,1.12,2.54,2a1.78,1.78,0,0,1-1.12,3.17Z"/><path class="cls-1" d="M535.14,172.85a1.77,1.77,0,0,1-.77-.18l-1.21-.57a30.48,30.48,0,0,1-7.52-4.55,1.82,1.82,0,0,1,2.17-2.91,27.08,27.08,0,0,0,6.88,4.18l1.23.57a1.82,1.82,0,0,1-.78,3.46Z"/><path class="cls-1" d="M546,176.36a1.73,1.73,0,0,1-.38-.05,41.1,41.1,0,0,1-10.4-3.37l-.76-.33a1.72,1.72,0,1,1,1.36-3.15l.77.33a37.82,37.82,0,0,0,9.8,3.17,1.72,1.72,0,0,1-.39,3.4Z"/><path class="cls-1" d="M556.91,177.86h-.08a40.44,40.44,0,0,1-7.47-.88c-.93-.19-2-.41-3.64-.68a1.68,1.68,0,0,1,.57-3.32c1.63.28,2.78.51,3.72.7a38,38,0,0,0,7,.82,1.68,1.68,0,0,1-.09,3.36Z"/><path class="cls-1" d="M564.36,178.55h-.05a58.53,58.53,0,0,1-7-.45l-.6-.07a1.86,1.86,0,1,1,.39-3.7l.61.06a55.22,55.22,0,0,0,6.68.44,1.86,1.86,0,0,1,0,3.72Z"/><path class="cls-1" d="M568.18,178.94a20.66,20.66,0,0,1-4.17-.53,1.76,1.76,0,0,1-1.38-2.07,1.78,1.78,0,0,1,2.08-1.38,12.42,12.42,0,0,0,5.33.29,32.79,32.79,0,0,1,3.78-.32,1.76,1.76,0,1,1,.11,3.52,31.56,31.56,0,0,0-3.41.29A15.62,15.62,0,0,1,568.18,178.94Z"/><path class="cls-1" d="M573.88,178.62a1.93,1.93,0,0,1-.76-3.71c.84-.36,1.47-.59,2-.78,1.24-.44,1.46-.53,3.06-2.26a1.93,1.93,0,1,1,2.84,2.62c-2.13,2.31-2.84,2.65-4.59,3.28-.46.17-1,.37-1.78.7A2.06,2.06,0,0,1,573.88,178.62Z"/><path class="cls-1" d="M579.59,175.09a1.91,1.91,0,0,1-1.3-3.31l1.37-1.25a20.8,20.8,0,0,0,3.94-4.5,1.91,1.91,0,1,1,3.1,2.22,24.11,24.11,0,0,1-4.47,5.1l-1.34,1.23A1.91,1.91,0,0,1,579.59,175.09Z"/><path class="cls-1" d="M585.15,169a1.78,1.78,0,0,1-.94-.26,1.84,1.84,0,0,1-.66-2.54,29.93,29.93,0,0,1,2.4-3.57,23.32,23.32,0,0,0,2.23-3.41,1.86,1.86,0,0,1,3.25,1.82,27.2,27.2,0,0,1-2.53,3.86,27,27,0,0,0-2.14,3.18A1.87,1.87,0,0,1,585.15,169Z"/><path class="cls-1" d="M589.81,162a1.86,1.86,0,0,1-1.16-.4,1.88,1.88,0,0,1-.33-2.65l1-1.31a43.69,43.69,0,0,1,4.08-4.72,1.89,1.89,0,1,1,2.73,2.6,42.27,42.27,0,0,0-3.83,4.43l-1,1.32A1.89,1.89,0,0,1,589.81,162Z"/><path class="cls-1" d="M594.78,156.18a1.94,1.94,0,0,1-1.54-3.12,21.73,21.73,0,0,1,3.73-4c.49-.43,1.09-.94,1.92-1.72a1.94,1.94,0,0,1,2.65,2.84c-.88.82-1.51,1.36-2,1.82a18.3,18.3,0,0,0-3.19,3.44A2,2,0,0,1,594.78,156.18Z"/><path class="cls-1" d="M600.21,150.61a1.86,1.86,0,0,1-1.14-3.33l.25-.19a29.89,29.89,0,0,1,7.82-4.83,1.87,1.87,0,0,1,1.63,3.36A27.08,27.08,0,0,0,601.6,150l-.25.19A1.81,1.81,0,0,1,600.21,150.61Z"/><path class="cls-1" d="M608,145.71a1.77,1.77,0,0,1-.77-3.37l.28-.13a36.13,36.13,0,0,1,9.37-3.44,1.77,1.77,0,1,1,.91,3.42A33.59,33.59,0,0,0,609,145.4l-.28.14A1.9,1.9,0,0,1,608,145.71Z"/><path class="cls-1" d="M617.3,142.35a1.87,1.87,0,0,1-.31-3.71c1.18-.19,2-.36,2.61-.5a21.45,21.45,0,0,1,5.13-.54,1.87,1.87,0,1,1,.06,3.73,18.16,18.16,0,0,0-4.41.46c-.69.15-1.53.33-2.78.53A1.53,1.53,0,0,1,617.3,142.35Z"/><path class="cls-1" d="M624.76,141.48a2,2,0,0,1-.21-4h.11a54.81,54.81,0,0,1,6-.42,2,2,0,1,1,.15,4,53.46,53.46,0,0,0-5.69.4l-.11,0Z"/></g></g></svg>