<svg xmlns="http://www.w3.org/2000/svg" viewBox="0 0 1256.6 360.46"><defs><style>.cls-1,.cls-2{fill:#fff;}.cls-1{fill-rule:evenodd;}</style></defs><title>KCRocks_Logo_RV</title><g id="Layer_2" data-name="Layer 2"><g id="C"><path class="cls-1" d="M378.45,38.3a96.77,96.77,0,0,1-10.94-11.75c-16-13.65-34-25.15-62-25.86,0,0-64.57-7.39-104.28,46.77,0,0-28.13-54.16-104.27-46.77C69,1.4,51,12.9,35,26.55,32.6,29.6,31.38,30.9,24.06,38.3,11.35,55.46.64,74.77,0,104.9v12.54c0,134.5,201.25,243,201.25,243s201.26-101.84,201.26-243.8V104.9C401.87,74.77,391.16,55.46,378.45,38.3ZM151.9,224.81l-39.09-71L104.37,163l.34,61.77h-24v-142h23.25v46.47L147,82.84h28.47L129,137.38l49.45,87.53Zm160.49-63.07H289.23v-13.2l-11.82-12.61H251l-11.82,13V222l12.7,13.9h24.64l12.7-13.9V208h23.16V231.2l-22.27,25.32H238.3L216,231.2V135.93l21.87-21.38h52.62l21.87,21.38Z"/><path class="cls-2" d="M576.73,163.85q0,35.61-28.2,46l37.53,53H545.35l-32.86-47.28H489.6v47.28H456.53V114.66h56.18q34.54,0,49.28,11.66T576.73,163.85Zm-39.86,17.59Q543,175.94,543,164t-6.36-16.43q-6.36-4.44-22.26-4.45H489.6V187h24.16Q530.73,187,536.87,181.44Z"/><path class="cls-2" d="M749.72,242.39q-22.49,21.94-55.33,21.94t-55.33-21.94q-22.48-21.94-22.48-54.59t22.48-54.59q22.46-21.93,55.33-21.94t55.33,21.94q22.47,21.94,22.47,54.59T749.72,242.39Zm-11.24-54.48q0-19.82-12.72-33.81t-31.27-14q-18.56,0-31.27,14T650.5,187.91q0,19.83,12.72,33.71t31.27,13.88q18.56,0,31.27-13.88T738.48,187.91Z"/><path class="cls-2" d="M884.12,233.59q24.38,0,39.86-19.29l21.2,21.84q-25.24,28.41-59.47,28.41t-56.39-21.63q-22.16-21.61-22.15-54.59t22.57-55q22.59-22,55.23-22,36.46,0,61,27.77l-20.56,23.32q-15.69-19.5-39-19.5-18.66,0-31.9,12.19T841.3,187.91q0,20.67,12.51,33.18A41.25,41.25,0,0,0,884.12,233.59Z"/><path class="cls-2" d="M987.15,114.66h33.07v60.85l56-60.85h40.91l-58.93,65.51q7.63,10.61,28.19,39.54t30.74,43.14h-38.58l-43.46-58.51-14.84,16.53v42H987.15Z"/><path class="cls-2" d="M1184.2,144.24a12.78,12.78,0,0,0-4.77,10.39q0,6.47,5.83,10.28t26.92,9q21.09,5.19,32.75,15.58t11.67,30.31q0,19.94-14.95,32.33t-39.33,12.41q-35.19,0-63.38-26.08l19.71-24.17q24,21,44.31,21,9.11,0,14.31-3.92a12.6,12.6,0,0,0,5.19-10.6,12.34,12.34,0,0,0-5.51-10.6q-5.52-3.91-21.83-7.95-25.87-6.15-37.85-16t-12-31q0-21.09,15.15-32.54t37.85-11.45a91,91,0,0,1,29.67,5.09,79.4,79.4,0,0,1,25.87,14.42l-16.75,24.16q-19.29-14.62-39.85-14.62Q1189,140.32,1184.2,144.24Z"/></g></g></svg>